<svg width="230" height="238" viewBox="0 0 230 238" fill="none" xmlns="http://www.w3.org/2000/svg">
<g id="Group">
<g id="Clip path group">
<mask id="mask0_9_227" style="mask-type:luminance" maskUnits="userSpaceOnUse" x="-8" y="0" width="238" height="238">
<g id="SVGID_122_">
<path id="Vector" d="M229.914 0.414124H-7.46545V237.901H229.914V0.414124Z" fill="white"/>
</g>
</mask>
<g mask="url(#mask0_9_227)">
<g id="Group_2">
<path id="Vector_2" d="M-27.2472 260.366C-12.812 229.878 -9.0695 197.785 7.50428 168.901C15.5238 153.925 31.563 143.227 42.7904 129.855C57.7603 112.204 70.0569 91.8787 86.6307 75.8323C111.759 50.6929 151.322 52.8324 175.381 25.0187C162.549 38.3907 153.995 55.5068 148.649 72.623C140.094 137.878 91.4424 188.157 40.6518 226.134C20.8702 243.25 -0.515293 259.296 -27.2472 260.366Z" fill="url(#paint0_linear_9_227)"/>
<path id="Vector_3" d="M-28.851 265.18C-6.9308 248.599 8.03906 226.668 30.4939 211.692C42.2559 203.669 57.2258 202.064 70.5917 196.715C88.2348 189.762 104.809 179.064 122.452 173.715C150.253 165.157 178.054 181.204 205.855 169.971C191.955 174.785 179.123 183.878 168.43 194.576C137.956 238.971 83.423 257.157 32.6324 265.715C12.8508 270.529 -9.06935 274.273 -28.851 265.18Z" fill="url(#paint1_linear_9_227)"/>
<path id="Vector_4" d="M-7.46539 270.529C-10.1386 243.25 -20.8313 219.18 -21.366 191.901C-21.9006 177.994 -15.485 164.088 -12.8118 149.646C-9.60394 130.925 -9.60394 111.669 -4.7922 93.4834C2.69273 65.1347 31.0285 50.158 36.3749 20.7396C33.1671 35.1814 34.2364 50.693 37.4442 65.6696C58.8297 115.413 45.4638 171.041 26.2168 218.645C19.2665 237.901 10.7123 258.761 -7.46539 270.529Z" fill="url(#paint2_linear_9_227)"/>
</g>
</g>
</g>
<g id="Clip path group_2">
<mask id="mask1_9_227" style="mask-type:luminance" maskUnits="userSpaceOnUse" x="-8" y="0" width="238" height="238">
<g id="SVGID_122__2">
<path id="Vector_5" d="M229.914 0.414124H-7.46545V237.901H229.914V0.414124Z" fill="white"/>
</g>
</mask>
<g mask="url(#mask1_9_227)">
<path id="Vector_6" d="M-78.0378 168.367C-61.9987 164.088 -51.8406 148.576 -36.8707 141.623C-5.86172 126.646 30.4937 151.25 64.1759 145.902C84.4921 142.692 105.878 128.251 124.055 137.878C141.698 146.971 143.302 171.576 155.599 186.553C163.084 195.645 174.846 202.064 178.054 213.297C180.192 219.18 179.123 226.134 178.054 232.017C173.777 255.017 164.153 276.947 150.787 295.668" stroke="white" stroke-miterlimit="10"/>
</g>
</g>
</g>
<defs>
<linearGradient id="paint0_linear_9_227" x1="113.622" y1="18.1931" x2="32.8298" y2="273.919" gradientUnits="userSpaceOnUse">
<stop offset="2.05407e-07" stop-color="#FFB439"/>
<stop offset="1" stop-color="#F76F01"/>
</linearGradient>
<linearGradient id="paint1_linear_9_227" x1="148.511" y1="29.2154" x2="67.7184" y2="284.942" gradientUnits="userSpaceOnUse">
<stop offset="2.05407e-07" stop-color="#FFB439"/>
<stop offset="1" stop-color="#F76F01"/>
</linearGradient>
<linearGradient id="paint2_linear_9_227" x1="60.3983" y1="1.37803" x2="-20.3942" y2="257.104" gradientUnits="userSpaceOnUse">
<stop offset="2.05407e-07" stop-color="#FFB439"/>
<stop offset="1" stop-color="#F76F01"/>
</linearGradient>
</defs>
</svg>
