<svg width="164" height="99" viewBox="0 0 164 99" fill="none" xmlns="http://www.w3.org/2000/svg">
<g id="Group">
<path id="Vector" d="M50.358 12.9315C65.0838 37.0832 84.3405 85.3865 46.9598 97.8396C20.529 101.613 -3.63634 54.0648 1.27223 27.6489C6.18081 -0.653802 30.3461 -10.088 50.358 12.9315Z" fill="url(#paint0_linear_8_22)"/>
<path id="Vector_2" d="M103.597 65.7632C77.9216 62.3669 49.6029 57.8385 31.1013 43.1211C26.9479 39.7247 26.5703 33.3095 30.7237 29.9131C42.8064 18.9694 61.3079 28.0263 77.1664 28.0263C106.995 25.0073 130.028 -5.93698 156.836 24.6299C176.471 51.0458 145.887 75.5748 120.588 69.5369C114.547 68.0274 109.261 66.1406 103.597 65.7632Z" stroke="white" stroke-miterlimit="10"/>
</g>
<defs>
<linearGradient id="paint0_linear_8_22" x1="14.2611" y1="1.69042" x2="63.5324" y2="119.779" gradientUnits="userSpaceOnUse">
<stop stop-color="#9DEAF3"/>
<stop offset="1" stop-color="#0091A0"/>
</linearGradient>
</defs>
</svg>
