<svg width="70" height="72" viewBox="0 0 70 72" fill="none" xmlns="http://www.w3.org/2000/svg">
<g id="Group">
<path id="Vector" d="M10.0434 24.4215C12.0641 18.3628 13.7961 16.9203 15.5282 15.4778C17.2602 14.0352 18.9922 12.8812 20.7242 6.82252C21.3016 2.78341 22.4563 0.763844 24.1883 0.186828C25.9203 -0.390187 27.941 0.475363 30.5391 1.34089C32.2711 1.9179 34.0031 2.78339 36.0238 3.64891C38.0445 4.51444 39.7765 5.37999 41.7972 6.24551C43.8179 7.11103 45.8386 8.26506 47.5706 9.70759C49.3027 10.8616 51.0347 12.3041 52.478 13.7467C53.6327 15.1892 55.0761 16.3433 56.8081 17.4973C58.5401 18.6513 60.5608 19.5169 62.0042 20.6709C65.1796 22.6905 67.4889 25.287 66.3342 29.6146C65.7569 33.0767 64.3136 35.9618 63.1589 38.5584C62.0042 41.4435 60.5608 44.04 59.4062 47.2136C58.2515 49.2332 57.0968 51.5412 55.9421 53.5608C54.7874 55.5803 53.9214 57.5999 53.0554 59.6194C51.0347 63.3701 49.5914 66.5436 47.282 68.5632C45.2613 70.5827 42.9519 71.4482 39.4878 70.8712C37.7558 70.5827 35.7351 69.7172 33.4258 68.5632C32.2711 67.9862 30.8277 67.1207 29.3843 66.2551C27.941 65.3896 26.209 64.2356 24.1883 63.0815C22.4563 61.9275 20.4356 61.062 18.4149 60.1965C16.3942 59.3309 14.3735 58.7539 12.3528 58.1769C9.46606 57.3114 6.57936 55.8689 4.55866 53.8493C2.53796 52.1182 1.09461 49.5217 0.228596 46.6366C-0.637417 43.463 1.09461 40.5779 3.11531 37.4044C4.26999 35.6733 5.71335 33.9422 6.86804 31.9227C8.31139 29.3261 9.17738 27.0181 10.0434 24.4215Z" fill="url(#paint0_linear_8_28)"/>
<path id="Vector_2" d="M67.7775 44.3286C69.2209 48.9447 69.5096 53.5608 68.6436 57.3114C67.4889 61.3505 65.7568 64.2356 63.4475 65.1011C61.1381 65.9667 58.2514 65.1011 54.4987 62.7931C52.7667 61.639 50.4573 60.1965 47.8593 58.177C45.2612 56.4459 42.0858 54.4263 38.6218 52.6953C33.137 50.0987 29.9616 47.2137 28.8069 44.6171C27.6523 42.0205 27.9409 39.4239 29.673 37.1159C31.1163 34.8078 34.003 32.7883 37.1784 31.3457C40.3538 29.9032 44.1065 29.0377 47.8593 29.0377C51.612 29.0377 55.3647 30.4802 58.8288 33.0768C62.0041 35.3849 65.1795 39.1354 67.7775 44.3286Z" stroke="white" stroke-miterlimit="10"/>
</g>
<defs>
<linearGradient id="paint0_linear_8_28" x1="84.9964" y1="-8.59676" x2="-18.4453" y2="70.4365" gradientUnits="userSpaceOnUse">
<stop stop-color="#9C6AAD"/>
<stop offset="0.9955" stop-color="#613E6D"/>
</linearGradient>
</defs>
</svg>
