<svg width="181" height="182" viewBox="0 0 181 182" fill="none" xmlns="http://www.w3.org/2000/svg">
<g id="Group">
<g id="Clip path group">
<mask id="mask0_8_6" style="mask-type:luminance" maskUnits="userSpaceOnUse" x="0" y="0" width="181" height="182">
<g id="SVGID_121_">
<path id="Vector" d="M-1.58596e-05 0.925262L0 181.886L180.859 181.886L180.859 0.925259L-1.58596e-05 0.925262Z" fill="white"/>
</g>
</mask>
<g mask="url(#mask0_8_6)">
<g id="Group_2">
<path id="Vector_2" d="M197.967 196.966C174.749 185.962 150.308 183.109 128.312 170.474C116.906 164.361 108.76 152.134 98.5761 143.575C85.134 132.163 69.655 122.789 57.4349 110.154C38.2899 90.9981 39.9193 60.838 18.7376 42.4973C28.9211 52.279 41.9559 58.8001 54.9908 62.8758C104.686 69.3969 142.976 106.486 171.897 145.205C184.932 160.285 197.152 176.588 197.967 196.966Z" fill="url(#paint0_linear_8_6)"/>
<path id="Vector_3" d="M201.633 198.189C189.005 181.479 172.304 170.067 160.899 152.949C154.789 143.982 153.567 132.57 149.493 122.381C144.198 108.931 136.051 96.2965 131.978 82.8467C125.46 61.6531 137.681 40.4595 129.126 19.2659C132.792 29.8627 139.717 39.6443 147.864 47.7957C181.673 71.0272 195.523 112.599 202.04 151.318C205.706 166.398 208.558 183.109 201.633 198.189Z" fill="url(#paint1_linear_8_6)"/>
<path id="Vector_4" d="M205.706 181.886C184.932 183.924 166.602 192.075 145.827 192.483C135.237 192.89 124.646 188 113.648 185.962C99.3907 183.516 84.7265 183.516 70.877 179.848C49.288 174.142 37.8825 152.541 15.4789 148.465C26.477 150.911 38.2899 150.096 49.6954 147.65C87.5779 131.347 129.941 141.537 166.194 156.209C180.859 161.508 196.745 168.029 205.706 181.886Z" fill="url(#paint2_linear_8_6)"/>
</g>
</g>
</g>
<g id="Clip path group_2">
<mask id="mask1_8_6" style="mask-type:luminance" maskUnits="userSpaceOnUse" x="0" y="0" width="181" height="182">
<g id="SVGID_121__2">
<path id="Vector_5" d="M-1.58596e-05 0.925262L0 181.886L180.859 181.886L180.859 0.925259L-1.58596e-05 0.925262Z" fill="white"/>
</g>
</mask>
<g mask="url(#mask1_8_6)">
<path id="Vector_6" d="M127.905 235.685C124.646 223.458 112.833 215.714 107.538 204.302C96.1321 180.663 114.87 152.949 110.796 127.272C108.352 111.784 97.3541 95.4814 104.686 81.624C111.611 68.1742 130.349 66.9515 141.754 57.5774C148.679 51.8715 153.567 42.9049 162.121 40.4595C166.602 38.8292 171.897 39.6444 176.378 40.4595C193.893 43.7201 210.594 51.0563 224.851 61.2456" stroke="white" stroke-miterlimit="10"/>
</g>
</g>
</g>
<defs>
<linearGradient id="paint0_linear_8_6" x1="13.5396" y1="89.5777" x2="208.324" y2="151.054" gradientUnits="userSpaceOnUse">
<stop stop-color="#FEDB4E"/>
<stop offset="1" stop-color="#FFB202"/>
</linearGradient>
<linearGradient id="paint1_linear_8_6" x1="21.9336" y1="62.9809" x2="216.719" y2="124.457" gradientUnits="userSpaceOnUse">
<stop stop-color="#FEDB4E"/>
<stop offset="1" stop-color="#FFB202"/>
</linearGradient>
<linearGradient id="paint2_linear_8_6" x1="0.734015" y1="130.152" x2="195.518" y2="191.628" gradientUnits="userSpaceOnUse">
<stop stop-color="#FEDB4E"/>
<stop offset="1" stop-color="#FFB202"/>
</linearGradient>
</defs>
</svg>
