<svg width="108" height="103" viewBox="0 0 108 103" fill="none" xmlns="http://www.w3.org/2000/svg">
<g id="Group">
<g id="Clip path group">
<mask id="mask0_8_46" style="mask-type:luminance" maskUnits="userSpaceOnUse" x="0" y="0" width="108" height="103">
<g id="SVGID_140_">
<path id="Vector" d="M107.064 0H0V102.169H107.064V0Z" fill="white"/>
</g>
</mask>
<g mask="url(#mask0_8_46)">
<g id="Group_2">
<path id="Vector_2" d="M-27.4108 102.491C-26.7658 101.202 -4.83709 29.6515 74.1708 39.6427" stroke="white" stroke-miterlimit="10" stroke-linecap="round" stroke-linejoin="round"/>
<path id="Vector_3" d="M74.1708 39.3205C74.1708 39.3205 89.6499 32.5522 96.0995 41.8989C102.872 51.5678 84.1677 51.8902 74.1708 39.3205Z" stroke="white" stroke-miterlimit="10" stroke-linecap="round" stroke-linejoin="round"/>
<path id="Vector_4" d="M63.2064 38.6759C63.2064 38.6759 66.4312 22.2387 77.7181 21.9164C89.3274 21.5941 79.008 37.3867 63.2064 38.6759Z" stroke="white" stroke-miterlimit="10" stroke-linecap="round" stroke-linejoin="round"/>
<path id="Vector_5" d="M54.822 38.3536C54.822 38.3536 48.6948 22.561 58.3693 16.4373C68.3662 10.3136 67.7212 29.3293 54.822 38.3536Z" stroke="white" stroke-miterlimit="10" stroke-linecap="round" stroke-linejoin="round"/>
<path id="Vector_6" d="M40.6328 40.2874C40.6328 40.2874 34.5056 24.4948 44.1801 18.3711C53.8545 12.2474 53.2095 30.9407 40.6328 40.2874Z" stroke="white" stroke-miterlimit="10" stroke-linecap="round" stroke-linejoin="round"/>
<path id="Vector_7" d="M31.9258 42.2212C31.9258 42.2212 19.349 30.9407 25.1537 20.9495C30.9584 11.2805 39.0204 28.3623 31.9258 42.2212Z" stroke="white" stroke-miterlimit="10" stroke-linecap="round" stroke-linejoin="round"/>
<path id="Vector_8" d="M18.3815 47.7003C18.3815 47.7003 3.54737 39.6428 7.09466 28.6847C10.6419 17.7265 22.2513 32.5522 18.3815 47.7003Z" stroke="white" stroke-miterlimit="10" stroke-linecap="round" stroke-linejoin="round"/>
<path id="Vector_9" d="M0.322654 60.2699C0.322654 60.2699 -12.8991 49.9563 -7.73937 39.6428C-2.90216 29.3292 6.44979 45.7665 0.322654 60.2699Z" stroke="white" stroke-miterlimit="10" stroke-linecap="round" stroke-linejoin="round"/>
<path id="Vector_10" d="M69.011 38.9982C69.011 38.9982 84.1676 46.4111 80.9428 57.6915C78.0405 68.6497 65.7862 54.4685 69.011 38.9982Z" stroke="white" stroke-miterlimit="10" stroke-linecap="round" stroke-linejoin="round"/>
<path id="Vector_11" d="M59.0142 38.6759C59.0142 38.6759 70.3011 51.2456 63.529 60.2699C56.4344 69.6166 50.3073 51.8901 59.0142 38.6759Z" stroke="white" stroke-miterlimit="10" stroke-linecap="round" stroke-linejoin="round"/>
<path id="Vector_12" d="M47.7273 39.3205C47.7273 39.3205 55.4668 54.4685 46.4374 61.5591C37.4079 68.6497 36.118 49.6341 47.7273 39.3205Z" stroke="white" stroke-miterlimit="10" stroke-linecap="round" stroke-linejoin="round"/>
<path id="Vector_13" d="M26.4436 44.4773C26.4436 44.4773 39.9878 54.4685 35.1505 64.7821C30.3133 75.0957 20.6389 58.9807 26.4436 44.4773Z" stroke="white" stroke-miterlimit="10" stroke-linecap="round" stroke-linejoin="round"/>
<path id="Vector_14" d="M7.41711 54.7908C7.41711 54.7908 23.8637 58.0138 24.1861 69.2942C24.1861 80.897 8.70704 70.5834 7.41711 54.7908Z" stroke="white" stroke-miterlimit="10" stroke-linecap="round" stroke-linejoin="round"/>
<path id="Vector_15" d="M-4.51465 65.1044C-4.51465 65.1044 12.2544 66.0713 13.8668 77.6741C15.4792 88.9545 -1.28984 80.5748 -4.51465 65.1044Z" stroke="white" stroke-miterlimit="10" stroke-linecap="round" stroke-linejoin="round"/>
<path id="Vector_16" d="M-16.4463 80.5747C-16.4463 80.5747 0.000248795 77.3518 4.51498 87.9876C9.02972 98.6235 -9.35171 94.7559 -16.4463 80.5747Z" stroke="white" stroke-miterlimit="10" stroke-linecap="round" stroke-linejoin="round"/>
</g>
</g>
</g>
</g>
</svg>
