<svg width="224" height="232" viewBox="0 0 224 232" fill="none" xmlns="http://www.w3.org/2000/svg">
<path id="Vector" d="M223.126 134.832C215.641 74.9258 209.76 19.8332 149.346 -9.58523C124.753 -17.6084 87.8625 -26.1665 63.8038 -14.934C39.7451 -2.63179 14.6171 14.4844 4.45898 41.7633C-13.7187 98.4606 40.2797 138.577 64.3384 178.693C80.9122 220.413 96.4167 238.064 146.673 228.971C192.652 222.553 226.868 180.832 223.126 134.832ZM188.374 177.088C156.296 210.785 92.6743 225.762 74.4966 164.251C58.9921 137.507 30.1216 116.646 24.7752 82.9491C17.2903 33.2052 73.9619 1.11237 116.733 9.13557C185.167 18.7634 231.68 122.53 188.374 177.088Z" fill="white"/>
</svg>
