<svg width="40" height="41" viewBox="0 0 40 41" fill="none" xmlns="http://www.w3.org/2000/svg">
<g id="ticket-discount">
<path id="Vector" d="M26.6005 28.0425C27.9016 26.7414 30.0135 26.7414 31.3146 28.0425L32.2574 27.0997C36.0286 23.3285 36.0286 21.4429 32.2574 17.6716L22.8293 8.24353C19.058 4.47229 17.1724 4.47229 13.4012 8.24353L12.9298 8.71493C14.2309 10.016 14.2309 12.1279 12.9298 13.429C11.6287 14.7301 9.51682 14.7301 8.21574 13.429L7.74433 13.9004C3.9731 17.6716 3.9731 19.5572 7.74433 23.3285L17.1724 32.7566C20.9437 36.5278 22.8293 36.5278 26.6005 32.7566C25.2994 31.4555 25.2994 29.3436 26.6005 28.0425Z" stroke="#292D32" stroke-width="2" stroke-linecap="round" stroke-linejoin="round"/>
<path id="Vector_2" d="M14.5795 20.2643L25.8932 20.2643" stroke="#292D32" stroke-width="2" stroke-linecap="round" stroke-linejoin="round"/>
<path id="Vector_3" d="M20.2314 25.916L20.2399 25.9245" stroke="#292D32" stroke-width="3" stroke-linecap="round" stroke-linejoin="round"/>
<path id="Vector_4" d="M19.76 15.0737L19.7684 15.0822" stroke="#292D32" stroke-width="3" stroke-linecap="round" stroke-linejoin="round"/>
</g>
</svg>
